<svg width="109" height="50" viewBox="0 0 109 50" fill="none" xmlns="http://www.w3.org/2000/svg">
<path d="M19.1468 29.616C14.4108 35.6747 10.6774 41.7547 7.94675 47.856L0.97075 41.392C3.74408 36.1867 7.39208 30.7467 11.9148 25.072L8.07475 22.896L13.5788 15.984L17.7388 18.288C22.9441 12.7413 27.9788 8.13333 32.8428 4.464L37.5788 8.752C38.2188 6.10666 38.7307 3.504 39.1147 0.943996L47.1148 7.856C44.5974 20.656 39.4988 34.3733 31.8188 49.008L24.5228 42.352C25.8881 39.8773 26.8694 38.064 27.4668 36.912C25.1201 34.3093 22.3468 31.8773 19.1468 29.616ZM24.7148 23.088C27.0188 24.8373 29.1308 26.736 31.0508 28.784C33.6534 22.2987 35.5734 16.6027 36.8108 11.696C33.0561 14.64 29.0241 18.4373 24.7148 23.088ZM58.0938 37.04C62.5311 37.9787 68.2058 38.7893 75.1178 39.472L72.3658 48.368C66.5204 47.856 62.3178 47.3653 59.7578 46.896C57.2404 46.4267 55.2564 46.0427 53.8058 45.744L46.1257 38.768C51.3311 27.9307 58.9898 15.6427 69.1018 1.904L75.6938 8.56C70.1044 16.24 64.2378 25.7333 58.0938 37.04ZM78.6867 41.072C84.9588 26.9493 92.5961 13.8933 101.599 1.904L108.127 8.56C103.775 14.576 100.212 20.08 97.4388 25.072C92.5321 33.9467 88.7348 41.5413 86.0468 47.856L78.6867 41.072Z" fill="black"/>
</svg>
